# xmcd
#
# Track frame offsets:
#	150
#	54146
#	85826
#	133734
#	187675
#	239314
#
# Disc length: 3679 seconds
#
# Revision: 0
# Processed by: cddbd v1.4PL0 Copyright (c) Steve Scherf et al.
# Submitted via: EasyCDDAExtractor 4.6.0.1
#
DISCID=3f0e5d06
DTITLE=Ghulam Ali - La Chala Jaan Meri
DYEAR=1999
DGENRE=Ghazal
TTITLE0=Faasle Aese Bhi Honge Yeh Kabhi Socha Na Tha
TTITLE1=Kuchh Din To Baso Meri Ankhon Mein
TTITLE2=La Chala Jaan Meri
TTITLE3=Meri Nazar Se Na Ho Door Ek Pal Ke Liye
TTITLE4=Woh Jo Hum Mein Tum Mein Qarar Tha
TTITLE5=Koi Hum Nafas Nahin Hai Koi Raaz Daan Nahin Hai
EXTD=The Best from Live Concerts - Vol 1
EXTT0=Lyrics: Adeem Hasmi
EXTT1=Lyrics: Obaidullah Aleem
EXTT2=Lyrics: Dagh (Traditional)
EXTT3=Lyrics: Qateel Shaifai
EXTT4=Lyrics: Momin (Traditional)
EXTT5=Lyrics: Mustafa Zaidi
PLAYORDER=
